<svg version="1.0" xmlns="http://www.w3.org/2000/svg"
 width="300.000000pt" height="200.000000pt" viewBox="0 0 300.000000 200.000000"
 preserveAspectRatio="xMidYMid meet">
<defs>
    <filter id="shadow" x="-20%" y="-20%" width="140%" height="140%">
        <feGaussianBlur in="SourceAlpha" stdDeviation="2"/>
        <feOffset dx="60" dy="60" result="offsetblur"/>
        <feFlood flood-color="#415a77" flood-opacity="0.5"/>
        <feComposite in2="offsetblur" operator="in"/>
        <feMerge>
            <feMergeNode/>
            <feMergeNode in="SourceGraphic"/>
        </feMerge>
    </filter>
</defs>
<rect width="100%" height="100%" fill="#6CB4EE"/>
<g transform="translate(10.000000,180.000000) scale(0.100000,-0.100000)" fill="#faf9f9" stroke="none" filter="url(#shadow)">
<path d="M555 1333 c-16 -10 -65 -33 -108 -52 -72 -31 -83 -33 -162 -29 -81 4
-86 3 -91 -18 -7 -29 1 -173 16 -259 7 -41 13 -203 14 -390 2 -176 4 -328 4
-337 2 -19 46 -26 56 -9 4 5 29 12 56 16 l50 7 0 82 c0 158 11 266 28 266 9 0
43 13 76 29 34 16 91 43 128 60 37 18 70 35 72 40 8 13 -44 139 -59 145 -13 5
-70 -16 -160 -59 -65 -31 -83 -35 -89 -19 -3 8 -9 70 -12 137 l-6 122 50 23
c27 12 53 22 56 22 6 0 109 46 176 78 19 9 38 21 42 26 6 8 -5 42 -36 106 -15
32 -60 37 -101 13z"/>
<path d="M2264 1313 c-19 -21 -51 -63 -72 -95 -20 -32 -65 -96 -99 -143 -34
-48 -72 -104 -85 -126 -12 -21 -25 -39 -30 -39 -4 0 -8 -9 -8 -19 0 -11 -11
-32 -23 -48 -45 -53 -42 -64 44 -170 91 -112 88 -108 113 -148 19 -30 43 -59
174 -216 l72 -87 68 5 c74 6 94 16 85 41 -9 25 -121 180 -167 233 -58 64 -79
91 -91 111 -6 9 -28 37 -51 60 -46 50 -84 102 -84 116 0 21 156 266 195 306
12 12 39 46 60 76 22 30 48 64 58 75 21 24 18 48 -7 53 -10 2 -34 15 -53 28
-48 32 -59 31 -99 -13z"/>
<path d="M1665 1319 c-11 -4 -41 -8 -67 -8 -38 -1 -50 -6 -62 -23 -27 -45
-149 -451 -170 -568 -21 -122 -38 -116 -86 32 -18 57 -45 138 -61 180 -16 42
-29 82 -29 88 0 5 -4 18 -10 28 -5 9 -16 44 -25 77 -9 33 -28 88 -43 122 l-27
61 -78 4 c-92 4 -80 27 -102 -207 -16 -161 -32 -324 -56 -550 -6 -55 -13 -145
-16 -200 l-5 -101 64 -16 c34 -8 70 -18 79 -22 20 -9 29 28 29 119 0 34 7 133
16 221 9 87 19 192 23 233 3 41 11 76 17 78 5 2 17 -14 25 -34 41 -99 80 -207
109 -293 17 -52 38 -108 45 -125 7 -16 19 -44 25 -61 18 -50 62 -86 99 -82 30
3 34 8 57 73 14 39 29 93 34 120 6 28 25 100 44 160 19 61 43 141 53 180 12
46 24 71 34 73 13 2 19 -20 33 -135 10 -76 22 -165 26 -198 5 -33 14 -107 20
-165 7 -58 17 -109 21 -115 5 -5 9 -20 9 -33 0 -23 3 -24 38 -18 20 4 52 8 71
10 18 3 38 9 44 15 11 11 -7 205 -24 251 -5 14 -15 84 -23 155 -8 72 -19 141
-24 155 -5 14 -12 57 -16 95 -4 39 -11 106 -17 150 -32 265 -38 289 -74 274z"/>
</g>
</svg>